<svg width="48" height="48" viewBox="0 0 48 48" fill="none" xmlns="http://www.w3.org/2000/svg">
<path d="M9 45H39C39.2652 45 39.5196 44.8947 39.7071 44.7071C39.8946 44.5196 40 44.2652 40 44V14C40.0008 13.8684 39.9755 13.7379 39.9258 13.6161C39.876 13.4943 39.8027 13.3835 39.71 13.29L29.71 3.29002C29.6166 3.19734 29.5057 3.12401 29.3839 3.07425C29.2621 3.02448 29.1316 2.99926 29 3.00002H9C8.73478 3.00002 8.48043 3.10537 8.29289 3.29291C8.10535 3.48045 8 3.7348 8 4.00002V37H10V5.00002H28.59L38 14.41V43H10V37H8V44C8 44.2652 8.10535 44.5196 8.29289 44.7071C8.48043 44.8947 8.73478 45 9 45Z" fill="black"/>
<path d="M29 15H39C39.1974 14.999 39.3901 14.9396 39.5539 14.8293C39.7176 14.719 39.845 14.5626 39.92 14.38C39.9966 14.1979 40.0175 13.9972 39.9801 13.8032C39.9428 13.6092 39.8488 13.4306 39.71 13.29L29.71 3.29002C29.5694 3.15126 29.3908 3.05726 29.1968 3.01989C29.0028 2.98252 28.8021 3.00344 28.62 3.08002C28.4374 3.15504 28.2811 3.28243 28.1707 3.44616C28.0604 3.60988 28.001 3.80259 28 4.00002V14C28 14.2652 28.1054 14.5196 28.2929 14.7071C28.4804 14.8947 28.7348 15 29 15ZM36.59 13H30V6.41002L36.59 13Z" fill="black"/>
<circle cx="24" cy="27" r="9" stroke="black" stroke-width="2"/>
<path d="M24.4497 21.2915V23.1641H23.4595V21.2915H24.4497ZM24.3291 31.6572V33.3647H23.3389V31.6572H24.3291ZM25.0273 29.5752C25.0273 29.334 24.9829 29.1287 24.894 28.9595C24.8094 28.7902 24.6698 28.64 24.4751 28.5088C24.2847 28.3776 24.0265 28.2507 23.7007 28.1279C23.1506 27.9163 22.666 27.6921 22.2471 27.4551C21.8324 27.2139 21.5086 26.9155 21.2759 26.5601C21.0431 26.2004 20.9268 25.7454 20.9268 25.1953C20.9268 24.6706 21.0516 24.2157 21.3013 23.8306C21.5509 23.4455 21.8958 23.1493 22.3359 22.9419C22.7803 22.7303 23.2965 22.6245 23.8848 22.6245C24.3333 22.6245 24.7396 22.6922 25.1035 22.8276C25.4674 22.9588 25.7806 23.1535 26.043 23.4116C26.3053 23.6655 26.5063 23.9766 26.646 24.3447C26.7856 24.7129 26.8555 25.134 26.8555 25.6079H25.0337C25.0337 25.354 25.0062 25.1297 24.9512 24.9351C24.8962 24.7404 24.8158 24.5775 24.71 24.4463C24.6084 24.3151 24.4857 24.2178 24.3418 24.1543C24.1979 24.0866 24.0392 24.0527 23.8657 24.0527C23.6076 24.0527 23.396 24.1035 23.231 24.2051C23.0659 24.3066 22.9453 24.4442 22.8691 24.6177C22.7972 24.7869 22.7612 24.9816 22.7612 25.2017C22.7612 25.4175 22.7993 25.6058 22.8755 25.7666C22.9559 25.9274 23.0934 26.0755 23.2881 26.2109C23.4827 26.3421 23.7493 26.4775 24.0879 26.6172C24.638 26.8288 25.1204 27.0573 25.5352 27.3027C25.9499 27.5482 26.2736 27.8486 26.5063 28.2041C26.7391 28.5596 26.8555 29.0124 26.8555 29.5625C26.8555 30.1084 26.7285 30.5739 26.4746 30.959C26.2207 31.3398 25.8652 31.6318 25.4082 31.835C24.9512 32.0339 24.4222 32.1333 23.8213 32.1333C23.432 32.1333 23.0448 32.0825 22.6597 31.981C22.2746 31.8752 21.9255 31.7059 21.6123 31.4731C21.2992 31.2404 21.0495 30.9315 20.8633 30.5464C20.6771 30.1571 20.584 29.6789 20.584 29.1118H22.4121C22.4121 29.4207 22.4523 29.6789 22.5327 29.8862C22.6131 30.0894 22.7189 30.2523 22.8501 30.375C22.9855 30.4935 23.1379 30.5781 23.3071 30.6289C23.4764 30.6797 23.6478 30.7051 23.8213 30.7051C24.0921 30.7051 24.3143 30.6564 24.4878 30.5591C24.6655 30.4618 24.7988 30.3285 24.8877 30.1592C24.9808 29.9857 25.0273 29.791 25.0273 29.5752Z" fill="black"/>
<line x1="14" y1="39.25" x2="34" y2="39.25" stroke="black" stroke-width="1.5"/>
</svg>
