<svg width="48" height="48" viewBox="0 0 48 48" fill="none" xmlns="http://www.w3.org/2000/svg">
<path d="M40.9997 21.0171C40.5734 13.2249 33.1514 7 24.0869 7C15.0225 7 7.60051 13.2249 7.17421 21.0171C4.2212 21.2314 2 22.7576 2 24.6695V27.6144C2 29.6788 4.58711 31.2956 7.88988 31.2956C8.29702 31.2956 8.62608 30.9666 8.62608 30.5594V21.7247C8.62608 14.4176 15.5622 8.47249 24.0869 8.47249C32.6117 8.47249 39.5478 14.4176 39.5478 21.7247V30.2546L37.7706 32.0318H36.2466C36.9467 30.2494 37.3392 28.2873 37.3392 26.2237C37.3392 18.1494 31.3941 11.5808 24.087 11.5808C16.78 11.5808 10.8349 18.1494 10.8349 26.2237C10.8349 34.2979 16.7799 40.8667 24.0869 40.8667C28.9946 40.8667 33.278 37.8968 35.5684 33.5044H38.0753C38.2712 33.5044 38.4581 33.4271 38.5958 33.2887L40.5939 31.2906C43.7472 31.1935 46.1738 29.6143 46.1738 27.6146V24.6697C46.1739 22.7576 43.9527 21.2314 40.9997 21.0171ZM7.15359 29.7916C4.95076 29.598 3.47241 28.5576 3.47241 27.6145V24.6696C3.47241 23.7265 4.95076 22.6862 7.15359 22.4926V29.7916ZM34.643 32.0326H27.7681C27.7681 30.8149 26.7771 29.8239 25.5594 29.8239H22.6145C21.3968 29.8239 20.4058 30.8149 20.4058 32.0326V33.5051C20.4058 34.7228 21.3968 35.7138 22.6145 35.7138H25.5594C26.7771 35.7138 27.7681 34.7228 27.7681 33.5051H33.895C31.782 37.0507 28.176 39.3942 24.0869 39.3942C17.5919 39.3942 12.3073 33.4867 12.3073 26.2237C12.3073 18.9608 17.5919 13.0541 24.0869 13.0541C30.582 13.0541 35.8666 18.9615 35.8666 26.2245C35.8666 28.311 35.419 30.2775 34.643 32.0326ZM26.2956 32.0319V33.5044C26.2956 33.9108 25.9658 34.2406 25.5594 34.2406H22.6145C22.2082 34.2406 21.8783 33.9108 21.8783 33.5044V32.0319C21.8783 31.6256 22.2082 31.2957 22.6145 31.2957H25.5594C25.9658 31.2956 26.2956 31.6255 26.2956 32.0319ZM44.7014 27.6145C44.7014 28.5576 43.223 29.598 41.0202 29.7916V22.4925C43.223 22.6861 44.7014 23.7265 44.7014 24.6695V27.6145Z" fill="black"/>
</svg>
